<svg width="20" height="20" viewBox="0 0 20 20" fill="none" xmlns="http://www.w3.org/2000/svg">
<path d="M15.25 8.95835C15.25 12.4331 12.4331 15.25 8.95832 15.25V17.25C13.5377 17.25 17.25 13.5377 17.25 8.95835H15.25ZM8.95832 15.25C5.48353 15.25 2.66666 12.4331 2.66666 8.95835H0.666656C0.666656 13.5377 4.37896 17.25 8.95832 17.25V15.25ZM2.66666 8.95835C2.66666 5.48356 5.48353 2.66669 8.95832 2.66669V0.666687C4.37896 0.666687 0.666656 4.37899 0.666656 8.95835H2.66666ZM8.95832 2.66669C12.4331 2.66669 15.25 5.48356 15.25 8.95835H17.25C17.25 4.37899 13.5377 0.666687 8.95832 0.666687V2.66669Z" fill="black"/>
<path d="M18.3333 18.3333L15 15" stroke="black" stroke-width="2" stroke-linecap="round"/>
</svg>
